#!OML:ASF F:\VICON\USERDATA\INSTALL\rory3\rory3.ASF
:FULLY-SPECIFIED
:DEGREES
36
root 0.6658201610453299 17.753464111362746 5.918039448665128 -1.4369542290524122 2.428269654946433 1.329420158082491
lfemur 17.027812348596207 -4.6335837949546095 -24.7500240449128
ltibia 23.508171361482813
lfoot -6.7219102281599685 -7.3661106437178745
ltoes -18.370163479349074
rfemur -28.588768325102443 4.688540430260672 20.386705539322666
rtibia 18.945646397487828
rfoot -1.8010779038725617 -8.521249981893295
rtoes -2.9417933249749675
lowerback 9.737764506927514 -1.547309185164064 -3.7943328129283636
upperback 0.19387444705290213 -2.3944457404574515 1.990182113389836
thorax -5.005584723092406 -1.0605343037009618 4.691205908915604
lowerneck -16.966599776174768 -2.6239586039614444 -1.8607104976782627
upperneck 20.75975325508255 -3.202440416724018 0.3961152467321012
head 9.403571605044386 -1.606900235425968 -0.002639484424649785
lclavicle -5.521756509970681e-16 -4.935217049987539e-16
lhumerus -23.16186963294323 -3.2563477609332536 80.53432799556276
lradius 33.07589908628864
lwrist 8.446302068537316
lhand -30.73154860892933 23.30540271318514
lfingers 7.125020000000058
lthumb -4.0235713309860754 53.25059876577343
rclavicle -5.521756509970681e-16 -4.935217049987539e-16
rhumerus -38.800650929346205 -30.17851460293858 -69.51667276325578
rradius 19.80221143651341
rwrist 13.247299802614101
rhand -17.648478004532194 29.56285625888019
rfingers 7.125020000000058
rthumb 8.609871734004134 -7.0717351276515314
37
root 0.6291078526537961 17.821337150945162 6.589967080074983 -2.1367841820416564 2.343378138156644 -0.0453105152934441
lfemur 14.723574530793364 -4.6882886989064065 -22.542225975104536
ltibia 32.702450220719726
lfoot 1.0635436250890775 -11.502783434318644
ltoes -20.55992375580953
rfemur -27.31331440065601 4.111302505652273 22.724492995665468
rtibia 24.66597523008698
rfoot -0.6897337658272562 -6.048003503842684
rtoes 3.136251477357087
lowerback 9.780911111505823 -1.6340617700271123 -2.653131395913169
upperback 0.18116373093073257 -2.3677183937634845 2.4323673217232136
thorax -5.089843216169056 -1.0659042320626209 4.456860845329408
lowerneck -16.817570521422574 -2.511241463266438 -1.8263861893543814
upperneck 21.122081749678593 -2.997294522820754 0.0999784613546526
head 9.489980678508264 -1.541743055030334 -0.08794142207102579
lclavicle -6.297004496975569e-16 -5.53549381371328e-16
lhumerus -24.435817346362366 -2.0597072919541812 80.91484038402879
lradius 31.924115307256443
lwrist 8.057175041392812
lhand -30.30878999334627 23.95022366306882
lfingers 7.125020000000058
lthumb -3.615305421581267 53.894294391022235
rclavicle -6.297004496975569e-16 -5.53549381371328e-16
rhumerus -39.79066816587024 -32.112756659314684 -67.92342295958908
rradius 18.24346431464341
rwrist 15.17756555675485
rhand -17.547928267051116 29.78858968013347
rfingers 7.125020000000058
rthumb 8.70682115459482 -7.08998187879733
38
root 0.574296582815889 17.906828438090752 6.777392281402394 -2.7708607399851584 2.323937664577423 -1.572653631913771
lfemur 10.166724351600745 -4.0193367596441885 -19.993782272486577
ltibia 43.35447984398538
lfoot 9.56358303292945 -15.787239497354193
ltoes -18.574279882786428
rfemur -25.10545263882919 4.060839864453424 25.08709940228103
rtibia 27.40742412819645
rfoot -1.54998411365059 -4.998540305192314
rtoes 8.268774389688776
lowerback 9.902073941560133 -1.6768162891181988 -1.4321873294597578
upperback 0.15242876561028834 -2.2705257698232675 2.8449188642617846
thorax -5.271648667357271 -1.0383752598939995 4.0901892258181345
lowerneck -16.63293663330358 -2.48685182999139 -1.796241671627186
upperneck 21.24285949463855 -2.948272188439126 -0.08277559676246304
head 9.488250396572528 -1.533970481048883 -0.14745377938980675
lclavicle -9.60922958138548e-16 -8.100159286316029e-16
lhumerus -26.097957431806762 -1.5148452621226955 81.44667784221609
lradius 30.457363299954217
lwrist 7.2527257499329245
lhand -29.698901443193154 24.286797193491324
lfingers 7.125020000000057
lthumb -3.0263406896915397 54.23300036454796
rclavicle -9.60922958138548e-16 -8.100159286316029e-16
rhumerus -40.214463083303144 -32.95224763615187 -67.5038727375472
rradius 17.13215964778864
rwrist 15.425824116782401
rhand -17.460825938010416 29.81250023014562
rfingers 7.125020000000057
rthumb 8.790913054110767 -7.134052613476404
39
root 0.5378723607141156 18.01404182520893 7.590047264879617 -3.320299035058027 2.3000905146599124 -2.944374411700657
lfemur 4.34664509555618 -2.7358236418415656 -17.322225750477624
ltibia 55.21889035093006
lfoot 16.20018615723032 -18.5899970305946
ltoes -13.790667013984695
rfemur -21.909761639343145 4.374440168788623 27.437237183949094
rtibia 29.07712915585332
rfoot -3.4595610991589667 -5.013351884765793
rtoes 11.642467731159618
lowerback 10.170579728592228 -1.5592203416070531 -0.2076295973045561
upperback 0.18480162825149676 -1.9583583204197965 3.1518551077336205
thorax -5.427301327411295 -0.9099733624990359 3.649444304261612
lowerneck -16.433212918521544 -2.552666080795656 -1.7468161251063674
upperneck 21.21600134538712 -3.060879198111107 -0.06419260869885068
head 9.438616764846861 -1.5833663596568275 -0.15964873664729484
lclavicle -9.450068223774522e-16 -7.976920139631749e-16
lhumerus -27.502347594736413 -1.3659358316288395 82.20603364160662
lradius 29.6634094212327
lwrist 6.461983806710464
lhand -28.996528767341797 24.437630769051083
lfingers 7.125020000000057
lthumb -2.348054457184663 54.389909152350384
rclavicle -9.450068223774522e-16 -7.976920139631749e-16
rhumerus -39.48800104168963 -31.9035119601673 -68.44784579013555
rradius 17.603071392497903
rwrist 14.351159191683863
rhand -17.283419437163396 29.866849257696725
rfingers 7.125020000000057
rthumb 8.9620946527322 -6.7017618274978865
